<svg width="308" height="56" viewBox="0 0 308 56" fill="none" xmlns="http://www.w3.org/2000/svg">
<path d="M30.9876 22.1639L27.7444 18.9207L8.01248 26.7866L7.93848 26.8186C7.47766 27.0326 6.68955 27.4828 6.60181 27.5335L6.56671 27.5549C5.64203 28.1202 4.78411 28.7965 4.01545 29.5652C-1.33848 34.9191 -1.33848 43.6304 4.01545 48.9847C4.07228 49.0411 4.12874 49.0968 4.18558 49.1514C6.83985 51.7171 10.2826 53 13.725 53C17.2414 53 20.7582 51.6614 23.4349 48.9847C24.2074 48.2122 25.2805 46.6775 25.3995 46.5047L25.4354 46.4529L25.4666 46.3983C25.5174 46.3106 25.9675 45.5217 26.1815 45.0616L34.0795 25.2557L30.9876 22.1639ZM6.08644 31.6358C6.68688 31.0354 7.35636 30.5063 8.07695 30.0638C8.36115 29.9009 8.87155 29.6178 9.13935 29.4908L27.0375 22.3551L27.181 22.4985L12.4761 32.8981C10.2639 34.4621 8.31118 36.4751 6.82726 38.7178C5.61495 40.5504 4.73528 42.5096 4.24395 44.4543C2.00739 40.3551 2.62041 35.1015 6.08644 31.6358V31.6358ZM6.8841 46.116C7.57112 42.1251 10.3448 37.9922 14.1671 35.2892L26.2685 26.7317L25.8141 27.374L17.7102 38.833C15.0956 42.5302 11.1424 45.2474 7.27358 46.0428C7.1435 46.0695 7.0138 46.0939 6.8841 46.116V46.116ZM23.5093 43.8608C23.3872 44.1167 23.1225 44.5962 22.9577 44.8862C22.6434 45.3352 21.8427 46.4353 21.3643 46.9137C17.8987 50.3797 12.6451 50.9927 8.54578 48.7562C10.4905 48.2648 12.4497 47.3852 14.2823 46.1729C16.525 44.6889 18.538 42.7362 20.102 40.5241L30.5016 25.8192L30.6451 25.9626L23.5093 43.8608Z" fill="#F56146"/>
<path d="M30.9876 22.1638L25.8141 27.3739L17.7102 38.8329C15.0956 42.5301 11.1424 45.2473 7.27354 46.0427L4.18555 49.1513C6.83981 51.7171 10.2826 52.9999 13.725 52.9999C17.2413 52.9999 20.7581 51.6614 23.4349 48.9846C24.2074 48.2121 25.2804 46.6775 25.3995 46.5046L25.4353 46.4528L25.4666 46.3982C25.5173 46.3105 25.9675 45.5216 26.1815 45.0615L34.0794 25.2556L30.9876 22.1638ZM23.5093 43.8607C23.3872 44.1166 23.1225 44.5962 22.9577 44.8861C22.6433 45.3351 21.8426 46.4352 21.3643 46.9136C17.8986 50.3796 12.645 50.9926 8.54575 48.7561C10.4905 48.2647 12.4497 47.3851 14.2823 46.1728C16.5249 44.6889 18.538 42.7361 20.102 40.524L30.5016 25.8191L30.6451 25.9625L23.5093 43.8607Z" fill="#F56146"/>
<path d="M50.0001 10.0206L45.5258 14.496L43.4548 16.5666L34.155 25.8657L27.1344 18.8451L36.4346 9.54601L38.5052 7.4754L42.9795 3L50.0001 10.0206Z" fill="#D5D6D1"/>
<path d="M50.0001 10.0207L45.5258 14.4961L43.4548 16.5667L34.1549 25.8658L30.7209 22.4322L46.5119 6.5325L50.0001 10.0207Z" fill="#D5D6D1"/>
<path d="M80.864 19.696C83.36 19.696 85.34 20.452 86.804 21.964C88.292 23.476 89.036 25.576 89.036 28.264V40H82.916V29.092C82.916 27.796 82.568 26.8 81.872 26.104C81.2 25.384 80.264 25.024 79.064 25.024C77.864 25.024 76.916 25.384 76.22 26.104C75.548 26.8 75.212 27.796 75.212 29.092V40H69.092V29.092C69.092 27.796 68.744 26.8 68.048 26.104C67.376 25.384 66.44 25.024 65.24 25.024C64.04 25.024 63.092 25.384 62.396 26.104C61.724 26.8 61.388 27.796 61.388 29.092V40H55.232V19.912H61.388V22.432C62.012 21.592 62.828 20.932 63.836 20.452C64.844 19.948 65.984 19.696 67.256 19.696C68.768 19.696 70.112 20.02 71.288 20.668C72.488 21.316 73.424 22.24 74.096 23.44C74.792 22.336 75.74 21.436 76.94 20.74C78.14 20.044 79.448 19.696 80.864 19.696ZM102.485 40.288C100.517 40.288 98.7414 39.868 97.1574 39.028C95.5974 38.188 94.3614 36.988 93.4494 35.428C92.5614 33.868 92.1174 32.044 92.1174 29.956C92.1174 27.892 92.5734 26.08 93.4854 24.52C94.3974 22.936 95.6454 21.724 97.2294 20.884C98.8134 20.044 100.589 19.624 102.557 19.624C104.525 19.624 106.301 20.044 107.885 20.884C109.469 21.724 110.717 22.936 111.629 24.52C112.541 26.08 112.997 27.892 112.997 29.956C112.997 32.02 112.529 33.844 111.593 35.428C110.681 36.988 109.421 38.188 107.813 39.028C106.229 39.868 104.453 40.288 102.485 40.288ZM102.485 34.96C103.661 34.96 104.657 34.528 105.473 33.664C106.313 32.8 106.733 31.564 106.733 29.956C106.733 28.348 106.325 27.112 105.509 26.248C104.717 25.384 103.733 24.952 102.557 24.952C101.357 24.952 100.361 25.384 99.5694 26.248C98.7774 27.088 98.3814 28.324 98.3814 29.956C98.3814 31.564 98.7654 32.8 99.5334 33.664C100.325 34.528 101.309 34.96 102.485 34.96ZM141.895 19.696C144.391 19.696 146.371 20.452 147.835 21.964C149.323 23.476 150.067 25.576 150.067 28.264V40H143.947V29.092C143.947 27.796 143.599 26.8 142.903 26.104C142.231 25.384 141.295 25.024 140.095 25.024C138.895 25.024 137.947 25.384 137.251 26.104C136.579 26.8 136.243 27.796 136.243 29.092V40H130.123V29.092C130.123 27.796 129.775 26.8 129.079 26.104C128.407 25.384 127.471 25.024 126.271 25.024C125.071 25.024 124.123 25.384 123.427 26.104C122.755 26.8 122.419 27.796 122.419 29.092V40H116.263V19.912H122.419V22.432C123.043 21.592 123.859 20.932 124.867 20.452C125.875 19.948 127.015 19.696 128.287 19.696C129.799 19.696 131.143 20.02 132.319 20.668C133.519 21.316 134.455 22.24 135.127 23.44C135.823 22.336 136.771 21.436 137.971 20.74C139.171 20.044 140.479 19.696 141.895 19.696ZM155.777 14.728H162.077L158.045 24.376H153.905L155.777 14.728ZM173.865 40.288C172.113 40.288 170.553 39.988 169.185 39.388C167.817 38.788 166.737 37.972 165.945 36.94C165.153 35.884 164.709 34.708 164.613 33.412H170.697C170.769 34.108 171.093 34.672 171.669 35.104C172.245 35.536 172.953 35.752 173.793 35.752C174.561 35.752 175.149 35.608 175.557 35.32C175.989 35.008 176.205 34.612 176.205 34.132C176.205 33.556 175.905 33.136 175.305 32.872C174.705 32.584 173.733 32.272 172.389 31.936C170.949 31.6 169.749 31.252 168.789 30.892C167.829 30.508 167.001 29.92 166.305 29.128C165.609 28.312 165.261 27.22 165.261 25.852C165.261 24.7 165.573 23.656 166.197 22.72C166.845 21.76 167.781 21.004 169.005 20.452C170.253 19.9 171.729 19.624 173.433 19.624C175.953 19.624 177.933 20.248 179.373 21.496C180.837 22.744 181.677 24.4 181.893 26.464H176.205C176.109 25.768 175.797 25.216 175.269 24.808C174.765 24.4 174.093 24.196 173.253 24.196C172.533 24.196 171.981 24.34 171.597 24.628C171.213 24.892 171.021 25.264 171.021 25.744C171.021 26.32 171.321 26.752 171.921 27.04C172.545 27.328 173.505 27.616 174.801 27.904C176.289 28.288 177.501 28.672 178.437 29.056C179.373 29.416 180.189 30.016 180.885 30.856C181.605 31.672 181.977 32.776 182.001 34.168C182.001 35.344 181.665 36.4 180.993 37.336C180.345 38.248 179.397 38.968 178.149 39.496C176.925 40.024 175.497 40.288 173.865 40.288ZM199.552 23.26C200.272 22.156 201.172 21.292 202.252 20.668C203.332 20.02 204.532 19.696 205.852 19.696V26.212H204.16C202.624 26.212 201.472 26.548 200.704 27.22C199.936 27.868 199.552 29.02 199.552 30.676V40H193.396V19.912H199.552V23.26ZM227.73 29.632C227.73 30.208 227.695 30.808 227.623 31.432H213.691C213.787 32.68 214.183 33.64 214.879 34.312C215.599 34.96 216.475 35.284 217.507 35.284C219.043 35.284 220.111 34.636 220.711 33.34H227.263C226.927 34.66 226.315 35.848 225.427 36.904C224.563 37.96 223.471 38.788 222.151 39.388C220.831 39.988 219.355 40.288 217.723 40.288C215.755 40.288 214.003 39.868 212.467 39.028C210.931 38.188 209.731 36.988 208.867 35.428C208.003 33.868 207.571 32.044 207.571 29.956C207.571 27.868 207.991 26.044 208.831 24.484C209.695 22.924 210.895 21.724 212.431 20.884C213.967 20.044 215.731 19.624 217.723 19.624C219.667 19.624 221.395 20.032 222.907 20.848C224.419 21.664 225.595 22.828 226.435 24.34C227.299 25.852 227.73 27.616 227.73 29.632ZM221.431 28.012C221.431 26.956 221.071 26.116 220.351 25.492C219.631 24.868 218.731 24.556 217.651 24.556C216.619 24.556 215.743 24.856 215.023 25.456C214.327 26.056 213.895 26.908 213.727 28.012H221.431ZM229.754 29.956C229.754 27.868 230.174 26.044 231.014 24.484C231.878 22.924 233.066 21.724 234.578 20.884C236.114 20.044 237.866 19.624 239.834 19.624C242.354 19.624 244.454 20.284 246.134 21.604C247.838 22.924 248.954 24.784 249.482 27.184H242.93C242.378 25.648 241.31 24.88 239.726 24.88C238.598 24.88 237.698 25.324 237.026 26.212C236.354 27.076 236.018 28.324 236.018 29.956C236.018 31.588 236.354 32.848 237.026 33.736C237.698 34.6 238.598 35.032 239.726 35.032C241.31 35.032 242.378 34.264 242.93 32.728H249.482C248.954 35.08 247.838 36.928 246.134 38.272C244.43 39.616 242.33 40.288 239.834 40.288C237.866 40.288 236.114 39.868 234.578 39.028C233.066 38.188 231.878 36.988 231.014 35.428C230.174 33.868 229.754 32.044 229.754 29.956ZM255.871 17.824C254.791 17.824 253.903 17.512 253.207 16.888C252.535 16.24 252.199 15.448 252.199 14.512C252.199 13.552 252.535 12.76 253.207 12.136C253.903 11.488 254.791 11.164 255.871 11.164C256.927 11.164 257.791 11.488 258.463 12.136C259.159 12.76 259.507 13.552 259.507 14.512C259.507 15.448 259.159 16.24 258.463 16.888C257.791 17.512 256.927 17.824 255.871 17.824ZM258.931 19.912V40H252.775V19.912H258.931ZM269.548 22.756C270.148 21.82 270.976 21.064 272.032 20.488C273.088 19.912 274.324 19.624 275.74 19.624C277.396 19.624 278.896 20.044 280.24 20.884C281.584 21.724 282.64 22.924 283.408 24.484C284.2 26.044 284.596 27.856 284.596 29.92C284.596 31.984 284.2 33.808 283.408 35.392C282.64 36.952 281.584 38.164 280.24 39.028C278.896 39.868 277.396 40.288 275.74 40.288C274.348 40.288 273.112 40 272.032 39.424C270.976 38.848 270.148 38.104 269.548 37.192V49.576H263.392V19.912H269.548V22.756ZM278.332 29.92C278.332 28.384 277.9 27.184 277.036 26.32C276.196 25.432 275.152 24.988 273.904 24.988C272.68 24.988 271.636 25.432 270.772 26.32C269.932 27.208 269.512 28.42 269.512 29.956C269.512 31.492 269.932 32.704 270.772 33.592C271.636 34.48 272.68 34.924 273.904 34.924C275.128 34.924 276.172 34.48 277.036 33.592C277.9 32.68 278.332 31.456 278.332 29.92ZM306.762 29.632C306.762 30.208 306.726 30.808 306.654 31.432H292.722C292.818 32.68 293.214 33.64 293.91 34.312C294.63 34.96 295.506 35.284 296.538 35.284C298.074 35.284 299.142 34.636 299.742 33.34H306.294C305.958 34.66 305.346 35.848 304.458 36.904C303.594 37.96 302.502 38.788 301.182 39.388C299.862 39.988 298.386 40.288 296.754 40.288C294.786 40.288 293.034 39.868 291.498 39.028C289.962 38.188 288.762 36.988 287.898 35.428C287.034 33.868 286.602 32.044 286.602 29.956C286.602 27.868 287.022 26.044 287.862 24.484C288.726 22.924 289.926 21.724 291.462 20.884C292.998 20.044 294.762 19.624 296.754 19.624C298.698 19.624 300.426 20.032 301.938 20.848C303.45 21.664 304.626 22.828 305.466 24.34C306.33 25.852 306.762 27.616 306.762 29.632ZM300.462 28.012C300.462 26.956 300.102 26.116 299.382 25.492C298.662 24.868 297.762 24.556 296.682 24.556C295.65 24.556 294.774 24.856 294.054 25.456C293.358 26.056 292.926 26.908 292.758 28.012H300.462Z" fill="#F56146"/>
</svg>
