<svg width="35" height="35" viewBox="0 0 35 35" fill="none" xmlns="http://www.w3.org/2000/svg">
<rect x="1" y="1" width="33" height="33" rx="9" stroke="#C4C4C4" stroke-width="2"/>
<path d="M28 10.01C27 10.5 26.02 10.699 25 11C23.879 9.73501 22.217 9.66501 20.62 10.263C19.023 10.861 17.977 12.323 18 14V15C14.755 15.083 11.865 13.605 10 11C10 11 5.818 18.433 14 22C12.128 23.247 10.261 24.088 8 24C11.308 25.803 14.913 26.423 18.034 25.517C21.614 24.477 24.556 21.794 25.685 17.775C26.0218 16.5527 26.189 15.2899 26.182 14.022C26.18 13.773 27.692 11.25 28 10.009V10.01Z" stroke="#C4C4C4" stroke-width="2" stroke-linecap="round" stroke-linejoin="round"/>
</svg>
